-3424.000000 -1964.000000 368.000000
-3422.801013 -1962.399720 367.960849
-3421.602026 -1960.799439 367.921699
-3420.403039 -1959.199159 367.882548
-3419.204052 -1957.598878 367.843398
-3418.005065 -1955.998598 367.804247
-3416.806079 -1954.398317 367.765096
-3415.607092 -1952.798037 367.725946
-3414.408105 -1951.197756 367.686795
-3413.209118 -1949.597476 367.647645
-3412.010131 -1947.997195 367.608494
-3410.811144 -1946.396915 367.569343
-3409.612157 -1944.796634 367.530193
-3408.413170 -1943.196354 367.491042
-3407.214183 -1941.596073 367.451892
-3406.015196 -1939.995793 367.412741
-3404.816209 -1938.395512 367.373591
-3403.617223 -1936.795232 367.334440
-3402.418236 -1935.194951 367.295289
-3401.219249 -1933.594671 367.256139
-3400.020262 -1931.994390 367.216988
-3398.821275 -1930.394110 367.177838
-3397.622288 -1928.793829 367.138687
-3396.423301 -1927.193549 367.099536
-3395.224314 -1925.593268 367.060386
-3394.025327 -1923.992988 367.021235
-3392.826340 -1922.392707 366.982085
-3391.627354 -1920.792427 366.942934
-3390.428367 -1919.192146 366.903783
-3389.229380 -1917.591866 366.864633
-3388.030393 -1915.991585 366.825482
-3386.831406 -1914.391305 366.786332
-3385.632419 -1912.791025 366.747181
-3384.433432 -1911.190744 366.708030
-3383.234445 -1909.590464 366.668880
-3382.035458 -1907.990183 366.629729
-3380.836471 -1906.389903 366.590579
-3379.637484 -1904.789622 366.551428
-3378.438498 -1903.189342 366.512277
-3377.239511 -1901.589061 366.473127
-3376.040524 -1899.988781 366.433976
-3374.841537 -1898.388500 366.394826
-3373.642550 -1896.788220 366.355675
-3372.443563 -1895.187939 366.316525
-3371.244576 -1893.587659 366.277374
-3370.045589 -1891.987378 366.238223
-3368.846602 -1890.387098 366.199073
-3367.647615 -1888.786817 366.159922
-3366.448628 -1887.186537 366.120772
-3365.249642 -1885.586256 366.081621
-3364.050655 -1883.985976 366.042470
-3362.851668 -1882.385695 366.003320
-3361.652681 -1880.785415 365.964169
-3360.453694 -1879.185134 365.925019
-3359.254707 -1877.584854 365.885868
-3358.055720 -1875.984573 365.846717
-3356.856733 -1874.384293 365.807567
-3355.657746 -1872.784012 365.768416
-3354.458759 -1871.183732 365.729266
-3353.259772 -1869.583451 365.690115
-3352.060786 -1867.983171 365.650964
-3350.861799 -1866.382890 365.611814
-3349.662812 -1864.782610 365.572663
-3348.463825 -1863.182330 365.533513
-3347.264838 -1861.582049 365.494362
-3346.065851 -1859.981769 365.455211
-3344.866864 -1858.381488 365.416061
-3343.667877 -1856.781208 365.376910
-3342.468890 -1855.180927 365.337760
-3341.269903 -1853.580647 365.298609
-3340.070917 -1851.980366 365.259458
-3338.871930 -1850.380086 365.220308
-3337.672943 -1848.779805 365.181157
-3336.473956 -1847.179525 365.142007
-3335.274969 -1845.579244 365.102856
-3334.075982 -1843.978964 365.063706
-3332.876995 -1842.378683 365.024555
-3331.678008 -1840.778403 364.985404
-3330.479021 -1839.178122 364.946254
-3329.280034 -1837.577842 364.907103
-3328.081047 -1835.977561 364.867953
-3326.882061 -1834.377281 364.828802
-3325.683074 -1832.777000 364.789651
-3324.484087 -1831.176720 364.750501
-3323.285100 -1829.576439 364.711350
-3322.086113 -1827.976159 364.672200
-3320.887126 -1826.375878 364.633049
-3319.688139 -1824.775598 364.593898
-3318.489152 -1823.175317 364.554748
-3317.290165 -1821.575037 364.515597
-3316.091178 -1819.974756 364.476447
-3314.892191 -1818.374476 364.437296
-3313.693205 -1816.774195 364.398145
-3312.494218 -1815.173915 364.358995
-3311.295231 -1813.573634 364.319844
-3310.096244 -1811.973354 364.280694
-3308.897257 -1810.373074 364.241543
-3307.698270 -1808.772793 364.202392
-3306.499283 -1807.172513 364.163242
-3305.300296 -1805.572232 364.124091
-3304.101309 -1803.971952 364.084941
-3302.902322 -1802.371671 364.045790
-3301.703335 -1800.771391 364.006640
-3300.504349 -1799.171110 363.967489
-3299.305362 -1797.570830 363.928338
-3298.106375 -1795.970549 363.889188
-3296.907388 -1794.370269 363.850037
-3295.708401 -1792.769988 363.810887
-3294.509414 -1791.169708 363.771736
-3293.310427 -1789.569427 363.732585
-3292.111440 -1787.969147 363.693435
-3290.912453 -1786.368866 363.654284
-3289.713466 -1784.768586 363.615134
-3288.514480 -1783.168305 363.575983
-3287.315493 -1781.568025 363.536832
-3286.116506 -1779.967744 363.497682
-3284.917519 -1778.367464 363.458531
-3283.718532 -1776.767183 363.419381
-3282.519545 -1775.166903 363.380230
-3281.320558 -1773.566622 363.341079
-3280.121571 -1771.966342 363.301929
-3278.922584 -1770.366061 363.262778
-3277.723597 -1768.765781 363.223628
-3276.524610 -1767.165500 363.184477
-3275.325624 -1765.565220 363.145326
-3274.126637 -1763.964939 363.106176
-3272.927650 -1762.364659 363.067025
-3271.728663 -1760.764379 363.027875
-3270.529676 -1759.164098 362.988724
-3269.330689 -1757.563818 362.949574
-3268.131702 -1755.963537 362.910423
-3266.932715 -1754.363257 362.871272
-3265.733728 -1752.762976 362.832122
-3264.534741 -1751.162696 362.792971
-3263.335754 -1749.562415 362.753821
-3262.136768 -1747.962135 362.714670
-3260.937781 -1746.361854 362.675519
-3259.738794 -1744.761574 362.636369
-3258.539807 -1743.161293 362.597218
-3257.340820 -1741.561013 362.558068
-3256.141833 -1739.960732 362.518917
-3254.942846 -1738.360452 362.479766
-3253.743859 -1736.760171 362.440616
-3252.544872 -1735.159891 362.401465
-3251.345885 -1733.559610 362.362315
-3250.146898 -1731.959330 362.323164
-3248.947912 -1730.359049 362.284013
-3247.748925 -1728.758769 362.244863
-3246.549938 -1727.158488 362.205712
-3245.350951 -1725.558208 362.166562
-3244.151964 -1723.957927 362.127411
-3242.952977 -1722.357647 362.088260
-3241.753990 -1720.757366 362.049110
-3240.555003 -1719.157086 362.009959
-3239.356016 -1717.556805 361.970809
-3238.157029 -1715.956525 361.931658
-3236.958043 -1714.356244 361.892508
-3235.759056 -1712.755964 361.853357
-3234.560069 -1711.155684 361.814206
-3233.361082 -1709.555403 361.775056
-3232.162095 -1707.955123 361.735905
-3230.963108 -1706.354842 361.696755
-3229.764121 -1704.754562 361.657604
-3228.565134 -1703.154281 361.618453
-3227.366147 -1701.554001 361.579303
-3226.167160 -1699.953720 361.540152
-3224.968173 -1698.353440 361.501002
-3223.769187 -1696.753159 361.461851
-3222.570200 -1695.152879 361.422700
-3221.371213 -1693.552598 361.383550
-3220.172226 -1691.952318 361.344399
-3218.973239 -1690.352037 361.305249
-3217.774252 -1688.751757 361.266098
-3216.575265 -1687.151476 361.226947
-3215.376278 -1685.551196 361.187797
-3214.177291 -1683.950915 361.148646
-3212.978304 -1682.350635 361.109496
-3211.779317 -1680.750354 361.070345
-3210.580331 -1679.150074 361.031194
-3209.381344 -1677.549793 360.992044
-3208.182357 -1675.949513 360.952893
-3206.983370 -1674.349232 360.913743
-3205.784383 -1672.748952 360.874592
-3204.585396 -1671.148671 360.835442
-3203.386409 -1669.548391 360.796291
-3202.187422 -1667.948110 360.757140
-3200.988435 -1666.347830 360.717990
-3199.789448 -1664.747549 360.678839
-3198.590461 -1663.147269 360.639689
-3197.391475 -1661.546989 360.600538
-3196.192488 -1659.946708 360.561387
-3194.993501 -1658.346428 360.522237
-3193.794514 -1656.746147 360.483086
-3192.595527 -1655.145867 360.443936
-3191.396540 -1653.545586 360.404785
-3190.197553 -1651.945306 360.365634
-3188.998566 -1650.345025 360.326484
-3187.799579 -1648.744745 360.287333
-3186.600592 -1647.144464 360.248183
-3185.401605 -1645.544184 360.209032
-3184.202619 -1643.943903 360.169881
-3183.003632 -1642.343623 360.130731
-3181.804645 -1640.743342 360.091580
-3180.605658 -1639.143062 360.052430
-3179.406671 -1637.542781 360.013279
-3178.207684 -1635.942501 359.974128
-3177.008697 -1634.342220 359.934978
-3175.809710 -1632.741940 359.895827
-3174.610723 -1631.141659 359.856677
-3173.411736 -1629.541379 359.817526
-3172.212750 -1627.941098 359.778375
-3171.013763 -1626.340818 359.739225
-3169.814776 -1624.740537 359.700074
-3168.615789 -1623.140257 359.660924
-3167.416802 -1621.539976 359.621773
-3166.217815 -1619.939696 359.582623
-3165.018828 -1618.339415 359.543472
-3163.819841 -1616.739135 359.504321
-3162.620854 -1615.138854 359.465171
-3161.421867 -1613.538574 359.426020
-3160.222880 -1611.938293 359.386870
-3159.023894 -1610.338013 359.347719
-3157.824907 -1608.737733 359.308568
-3156.625920 -1607.137452 359.269418
-3155.426933 -1605.537172 359.230267
-3154.227946 -1603.936891 359.191117
-3153.028959 -1602.336611 359.151966
-3151.829972 -1600.736330 359.112815
-3150.630985 -1599.136050 359.073665
-3149.431998 -1597.535769 359.034514
-3148.233011 -1595.935489 358.995364
-3147.034024 -1594.335208 358.956213
-3145.835038 -1592.734928 358.917062
-3144.636051 -1591.134647 358.877912
-3143.437064 -1589.534367 358.838761
-3142.238077 -1587.934086 358.799611
-3141.039090 -1586.333806 358.760460
-3139.840103 -1584.733525 358.721309
-3138.641116 -1583.133245 358.682159
-3137.442129 -1581.532964 358.643008
-3136.243142 -1579.932684 358.603858
-3135.044155 -1578.332403 358.564707
-3133.845168 -1576.732123 358.525557
-3132.646182 -1575.131842 358.486406
-3131.447195 -1573.531562 358.447255
-3130.248208 -1571.931281 358.408105
-3129.049221 -1570.331001 358.368954
-3127.850234 -1568.730720 358.329804
-3126.651247 -1567.130440 358.290653
-3125.452260 -1565.530159 358.251502
-3124.253273 -1563.929879 358.212352
-3123.054286 -1562.329598 358.173201
-3121.855299 -1560.729318 358.134051
-3120.656313 -1559.129038 358.094900
-3119.457326 -1557.528757 358.055749
-3118.258339 -1555.928477 358.016599
-3117.059352 -1554.328196 357.977448
-3115.860365 -1552.727916 357.938298
-3114.661378 -1551.127635 357.899147
-3113.462391 -1549.527355 357.859996
-3112.263404 -1547.927074 357.820846
-3111.064417 -1546.326794 357.781695
-3109.865430 -1544.726513 357.742545
-3108.666443 -1543.126233 357.703394
-3107.467457 -1541.525952 357.664243
-3106.268470 -1539.925672 357.625093
-3105.069483 -1538.325391 357.585942
-3103.870496 -1536.725111 357.546792
-3102.671509 -1535.124830 357.507641
-3101.472522 -1533.524550 357.468491
-3100.273535 -1531.924269 357.429340
-3099.074548 -1530.323989 357.390189
-3097.875561 -1528.723708 357.351039
-3096.676574 -1527.123428 357.311888
-3095.477587 -1525.523147 357.272738
-3094.278601 -1523.922867 357.233587
-3093.079614 -1522.322586 357.194436
-3091.880627 -1520.722306 357.155286
-3090.681640 -1519.122025 357.116135
-3089.482653 -1517.521745 357.076985
-3088.283666 -1515.921464 357.037834
-3087.084679 -1514.321184 356.998683
-3085.885692 -1512.720903 356.959533
-3084.686705 -1511.120623 356.920382
-3083.487718 -1509.520343 356.881232
-3082.288731 -1507.920062 356.842081
-3081.089745 -1506.319782 356.802930
-3079.890758 -1504.719501 356.763780
-3078.691771 -1503.119221 356.724629
-3077.492784 -1501.518940 356.685479
-3076.293797 -1499.918660 356.646328
-3075.094810 -1498.318379 356.607177
-3073.895823 -1496.718099 356.568027
-3072.696836 -1495.117818 356.528876
-3071.497849 -1493.517538 356.489726
-3070.298862 -1491.917257 356.450575
-3069.099876 -1490.316977 356.411425
-3067.900889 -1488.716696 356.372274
-3066.701902 -1487.116416 356.333123
-3065.502915 -1485.516135 356.293973
-3064.303928 -1483.915855 356.254822
-3063.104941 -1482.315574 356.215672
-3061.905954 -1480.715294 356.176521
-3060.706967 -1479.115013 356.137370
-3059.507980 -1477.514733 356.098220
-3058.308993 -1475.914452 356.059069
-3057.110006 -1474.314172 356.019919
-3055.911020 -1472.713891 355.980768
-3054.712033 -1471.113611 355.941617
-3053.513046 -1469.513330 355.902467
-3052.314059 -1467.913050 355.863316
-3051.115072 -1466.312769 355.824166
-3049.916085 -1464.712489 355.785015
-3048.717098 -1463.112208 355.745864
-3047.518111 -1461.511928 355.706714
-3046.319124 -1459.911648 355.667563
-3045.120137 -1458.311367 355.628413
-3043.921150 -1456.711087 355.589262
-3042.722164 -1455.110806 355.550111
-3041.523177 -1453.510526 355.510961
-3040.324190 -1451.910245 355.471810
-3039.125203 -1450.309965 355.432660
-3037.926216 -1448.709684 355.393509
-3036.727229 -1447.109404 355.354358
-3035.528242 -1445.509123 355.315208
-3034.329255 -1443.908843 355.276057
-3033.130268 -1442.308562 355.236907
-3031.931281 -1440.708282 355.197756
-3030.732294 -1439.108001 355.158606
-3029.533308 -1437.507721 355.119455
-3028.334321 -1435.907440 355.080304
-3027.135334 -1434.307160 355.041154
-3025.936347 -1432.706879 355.002003
-3024.737360 -1431.106599 354.962853
-3023.538373 -1429.506318 354.923702
-3022.339386 -1427.906038 354.884551
-3021.140399 -1426.305757 354.845401
-3019.941412 -1424.705477 354.806250
-3018.742425 -1423.105196 354.767100
-3017.543439 -1421.504916 354.727949
-3016.344452 -1419.904635 354.688798
-3015.145465 -1418.304355 354.649648
-3013.946478 -1416.704074 354.610497
-3012.747491 -1415.103794 354.571347
-3011.548504 -1413.503513 354.532196
-3010.349517 -1411.903233 354.493045
-3009.150530 -1410.302953 354.453895
-3007.951543 -1408.702672 354.414744
-3006.752556 -1407.102392 354.375594
-3005.553569 -1405.502111 354.336443
-3004.354583 -1403.901831 354.297292
-3003.155596 -1402.301550 354.258142
-3001.956609 -1400.701270 354.218991
-3000.757622 -1399.100989 354.179841
-2999.558635 -1397.500709 354.140690
-2998.359648 -1395.900428 354.101540
-2997.160661 -1394.300148 354.062389
-2995.961674 -1392.699867 354.023238
-2994.762687 -1391.099587 353.984088
-2993.563700 -1389.499306 353.944937
-2992.364713 -1387.899026 353.905787
-2991.165727 -1386.298745 353.866636
-2989.966740 -1384.698465 353.827485
-2988.767753 -1383.098184 353.788335
-2987.568766 -1381.497904 353.749184
-2986.369779 -1379.897623 353.710034
-2985.170792 -1378.297343 353.670883
-2983.971805 -1376.697062 353.631732
-2982.772818 -1375.096782 353.592582
-2981.573831 -1373.496501 353.553431
-2980.374844 -1371.896221 353.514281
-2979.175857 -1370.295940 353.475130
-2977.976871 -1368.695660 353.435979
-2976.777884 -1367.095379 353.396829
-2975.578897 -1365.495099 353.357678
-2974.379910 -1363.894818 353.318528
-2973.180923 -1362.294538 353.279377
-2971.981936 -1360.694257 353.240226
-2970.782949 -1359.093977 353.201076
-2969.583962 -1357.493697 353.161925
-2968.384975 -1355.893416 353.122775
-2967.185988 -1354.293136 353.083624
-2965.987002 -1352.692855 353.044474
-2964.788015 -1351.092575 353.005323
-2963.589028 -1349.492294 352.966172
-2962.390041 -1347.892014 352.927022
-2961.191054 -1346.291733 352.887871
-2959.992067 -1344.691453 352.848721
-2958.793080 -1343.091172 352.809570
-2957.594093 -1341.490892 352.770419
-2956.395106 -1339.890611 352.731269
-2955.196119 -1338.290331 352.692118
-2953.997132 -1336.690050 352.652968
-2952.798146 -1335.089770 352.613817
-2951.599159 -1333.489489 352.574666
-2950.400172 -1331.889209 352.535516
-2949.201185 -1330.288928 352.496365
-2948.002198 -1328.688648 352.457215
-2946.803211 -1327.088367 352.418064
-2945.604224 -1325.488087 352.378913
-2944.405237 -1323.887806 352.339763
-2943.206250 -1322.287526 352.300612
-2942.007263 -1320.687245 352.261462
-2940.808276 -1319.086965 352.222311
-2939.609290 -1317.486684 352.183160
-2938.410303 -1315.886404 352.144010
-2937.211316 -1314.286123 352.104859
-2936.012329 -1312.685843 352.065709
-2934.813342 -1311.085562 352.026558
-2933.614355 -1309.485282 351.987408
-2932.415368 -1307.885002 351.948257
-2931.216381 -1306.284721 351.909106
-2930.017394 -1304.684441 351.869956
-2928.818407 -1303.084160 351.830805
-2927.619420 -1301.483880 351.791655
-2926.420434 -1299.883599 351.752504
-2925.221447 -1298.283319 351.713353
-2924.022460 -1296.683038 351.674203
-2922.823473 -1295.082758 351.635052
-2921.624486 -1293.482477 351.595902
-2920.425499 -1291.882197 351.556751
-2919.226512 -1290.281916 351.517600
-2918.027525 -1288.681636 351.478450
-2916.828538 -1287.081355 351.439299
-2915.629551 -1285.481075 351.400149
-2914.430565 -1283.880794 351.360998
-2913.231578 -1282.280514 351.321847
-2912.032591 -1280.680233 351.282697
-2910.833604 -1279.079953 351.243546
-2909.634617 -1277.479672 351.204396
-2908.435630 -1275.879392 351.165245
-2907.236643 -1274.279111 351.126094
-2906.037656 -1272.678831 351.086944
-2904.838669 -1271.078550 351.047793
-2903.639682 -1269.478270 351.008643
-2902.440695 -1267.877989 350.969492
-2901.241709 -1266.277709 350.930342
-2900.042722 -1264.677428 350.891191
-2898.843735 -1263.077148 350.852040
-2897.644748 -1261.476867 350.812890
-2896.445761 -1259.876587 350.773739
-2895.246774 -1258.276307 350.734589
-2894.047787 -1256.676026 350.695438
-2892.848800 -1255.075746 350.656287
-2891.649813 -1253.475465 350.617137
-2890.450826 -1251.875185 350.577986
-2889.251839 -1250.274904 350.538836
-2888.052853 -1248.674624 350.499685
-2886.853866 -1247.074343 350.460534
-2885.654879 -1245.474063 350.421384
-2884.455892 -1243.873782 350.382233
-2883.256905 -1242.273502 350.343083
-2882.057918 -1240.673221 350.303932
-2880.858931 -1239.072941 350.264781
-2879.659944 -1237.472660 350.225631
-2878.460957 -1235.872380 350.186480
-2877.261970 -1234.272099 350.147330
-2876.062983 -1232.671819 350.108179
-2874.863997 -1231.071538 350.069028
-2873.665010 -1229.471258 350.029878
-2872.466023 -1227.870977 349.990727
-2871.267036 -1226.270697 349.951577
-2870.068049 -1224.670416 349.912426
-2868.869062 -1223.070136 349.873275
-2867.670075 -1221.469855 349.834125
-2866.471088 -1219.869575 349.794974
-2865.272101 -1218.269294 349.755824
-2864.073114 -1216.669014 349.716673
-2862.874128 -1215.068733 349.677523
-2861.675141 -1213.468453 349.638372
-2860.476154 -1211.868172 349.599221
-2859.277167 -1210.267892 349.560071
-2858.078180 -1208.667612 349.520920
-2856.879193 -1207.067331 349.481770
-2855.680206 -1205.467051 349.442619
-2854.481219 -1203.866770 349.403468
-2853.282232 -1202.266490 349.364318
-2852.083245 -1200.666209 349.325167
-2850.884258 -1199.065929 349.286017
-2849.685272 -1197.465648 349.246866
-2848.486285 -1195.865368 349.207715
-2847.287298 -1194.265087 349.168565
-2846.088311 -1192.664807 349.129414
-2844.889324 -1191.064526 349.090264
-2843.690337 -1189.464246 349.051113
-2842.491350 -1187.863965 349.011962
-2841.292363 -1186.263685 348.972812
-2840.093376 -1184.663404 348.933661
-2838.894389 -1183.063124 348.894511
-2837.695402 -1181.462843 348.855360
-2836.496416 -1179.862563 348.816209
-2835.297429 -1178.262282 348.777059
-2834.098442 -1176.662002 348.737908
-2832.899455 -1175.061721 348.698758
-2831.700468 -1173.461441 348.659607
-2830.501481 -1171.861160 348.620457
-2829.302494 -1170.260880 348.581306
-2828.103507 -1168.660599 348.542155
-2826.904520 -1167.060319 348.503005
-2825.705533 -1165.460038 348.463854
-2824.506546 -1163.859758 348.424704
-2823.307560 -1162.259477 348.385553
-2822.108573 -1160.659197 348.346402
-2820.909586 -1159.058916 348.307252
-2819.710599 -1157.458636 348.268101
-2818.511612 -1155.858356 348.228951
-2817.312625 -1154.258075 348.189800
-2816.113638 -1152.657795 348.150649
-2814.914651 -1151.057514 348.111499
-2813.715664 -1149.457234 348.072348
-2812.516677 -1147.856953 348.033198
-2811.317690 -1146.256673 347.994047
-2810.118704 -1144.656392 347.954896
-2808.919717 -1143.056112 347.915746
-2807.720730 -1141.455831 347.876595
-2806.521743 -1139.855551 347.837445
-2805.322756 -1138.255270 347.798294
-2804.123769 -1136.654990 347.759143
-2802.924782 -1135.054709 347.719993
-2801.725795 -1133.454429 347.680842
-2800.526808 -1131.854148 347.641692
-2799.327821 -1130.253868 347.602541
-2798.128835 -1128.653587 347.563391
-2796.929848 -1127.053307 347.524240
-2795.730861 -1125.453026 347.485089
-2794.531874 -1123.852746 347.445939
-2793.332887 -1122.252465 347.406788
-2792.133900 -1120.652185 347.367638
-2790.934913 -1119.051904 347.328487
-2789.735926 -1117.451624 347.289336
-2788.536939 -1115.851343 347.250186
-2787.337952 -1114.251063 347.211035
-2786.138965 -1112.650782 347.171885
-2784.939979 -1111.050502 347.132734
-2783.740992 -1109.450221 347.093583
-2782.542005 -1107.849941 347.054433
-2781.343018 -1106.249661 347.015282
-2780.144031 -1104.649380 346.976132
-2778.945044 -1103.049100 346.936981
-2777.746057 -1101.448819 346.897830
-2776.547070 -1099.848539 346.858680
-2775.348083 -1098.248258 346.819529
-2774.149096 -1096.647978 346.780379
-2772.950109 -1095.047697 346.741228
-2771.751123 -1093.447417 346.702077
-2770.552136 -1091.847136 346.662927
-2769.353149 -1090.246856 346.623776
-2768.154162 -1088.646575 346.584626
-2766.955175 -1087.046295 346.545475
-2765.756188 -1085.446014 346.506325
-2764.557201 -1083.845734 346.467174
-2763.358214 -1082.245453 346.428023
-2762.159227 -1080.645173 346.388873
-2760.960240 -1079.044892 346.349722
-2759.761253 -1077.444612 346.310572
-2758.562267 -1075.844331 346.271421
-2757.363280 -1074.244051 346.232270
-2756.164293 -1072.643770 346.193120
-2754.965306 -1071.043490 346.153969
-2753.766319 -1069.443209 346.114819
-2752.567332 -1067.842929 346.075668
-2751.368345 -1066.242648 346.036517
-2750.169358 -1064.642368 345.997367
-2748.970371 -1063.042087 345.958216
-2747.771384 -1061.441807 345.919066
-2746.572398 -1059.841526 345.879915
-2745.373411 -1058.241246 345.840764
-2744.174424 -1056.640966 345.801614
-2742.975437 -1055.040685 345.762463
-2741.776450 -1053.440405 345.723313
-2740.577463 -1051.840124 345.684162
-2739.378476 -1050.239844 345.645011
-2738.179489 -1048.639563 345.605861
-2736.980502 -1047.039283 345.566710
-2735.781515 -1045.439002 345.527560
-2734.582528 -1043.838722 345.488409
-2733.383542 -1042.238441 345.449258
-2732.184555 -1040.638161 345.410108
-2730.985568 -1039.037880 345.370957
-2729.786581 -1037.437600 345.331807
-2728.587594 -1035.837319 345.292656
-2727.388607 -1034.237039 345.253506
-2726.189620 -1032.636758 345.214355
-2724.990633 -1031.036478 345.175204
-2723.791646 -1029.436197 345.136054
-2722.592659 -1027.835917 345.096903
-2721.393672 -1026.235636 345.057753
-2720.194686 -1024.635356 345.018602
-2718.995699 -1023.035075 344.979451
-2717.796712 -1021.434795 344.940301
-2716.597725 -1019.834514 344.901150
-2715.398738 -1018.234234 344.862000
-2714.199751 -1016.633953 344.822849
-2713.000764 -1015.033673 344.783698
-2711.801777 -1013.433392 344.744548
-2710.602790 -1011.833112 344.705397
-2709.403803 -1010.232831 344.666247
-2708.204816 -1008.632551 344.627096
-2707.005830 -1007.032271 344.587945
-2705.806843 -1005.431990 344.548795
-2704.607856 -1003.831710 344.509644
-2703.408869 -1002.231429 344.470494
-2702.209882 -1000.631149 344.431343
-2701.010895 -999.030868 344.392192
-2699.811908 -997.430588 344.353042
-2698.612921 -995.830307 344.313891
-2697.413934 -994.230027 344.274741
-2696.214947 -992.629746 344.235590
-2695.015961 -991.029466 344.196440
-2693.816974 -989.429185 344.157289
-2692.617987 -987.828905 344.118138
-2691.419000 -986.228624 344.078988
-2690.220013 -984.628344 344.039837
-2689.021026 -983.028063 344.000687
-2687.822039 -981.427783 343.961536
-2686.623052 -979.827502 343.922385
-2685.424065 -978.227222 343.883235
-2684.225078 -976.626941 343.844084
-2683.026091 -975.026661 343.804934
-2681.827105 -973.426380 343.765783
-2680.628118 -971.826100 343.726632
-2679.429131 -970.225819 343.687482
-2678.230144 -968.625539 343.648331
-2677.031157 -967.025258 343.609181
-2675.832170 -965.424978 343.570030
-2674.633183 -963.824697 343.530879
-2673.434196 -962.224417 343.491729
-2672.235209 -960.624136 343.452578
-2671.036222 -959.023856 343.413428
-2669.837235 -957.423575 343.374277
-2668.638249 -955.823295 343.335126
-2667.439262 -954.223015 343.295976
-2666.240275 -952.622734 343.256825
-2665.041288 -951.022454 343.217675
-2663.842301 -949.422173 343.178524
-2662.643314 -947.821893 343.139374
-2661.444327 -946.221612 343.100223
-2660.245340 -944.621332 343.061072
-2659.046353 -943.021051 343.021922
-2657.847366 -941.420771 342.982771
-2656.648379 -939.820490 342.943621
-2655.449393 -938.220210 342.904470
-2654.250406 -936.619929 342.865319
-2653.051419 -935.019649 342.826169
-2651.852432 -933.419368 342.787018
-2650.653445 -931.819088 342.747868
-2649.454458 -930.218807 342.708717
-2648.255471 -928.618527 342.669566
-2647.056484 -927.018246 342.630416
-2645.857497 -925.417966 342.591265
-2644.658510 -923.817685 342.552115
-2643.459524 -922.217405 342.512964
-2642.260537 -920.617124 342.473813
-2641.061550 -919.016844 342.434663
-2639.862563 -917.416563 342.395512
-2638.663576 -915.816283 342.356362
-2637.464589 -914.216002 342.317211
-2636.265602 -912.615722 342.278060
-2635.066615 -911.015441 342.238910
-2633.867628 -909.415161 342.199759
-2632.668641 -907.814880 342.160609
-2631.469654 -906.214600 342.121458
-2630.270668 -904.614320 342.082308
-2629.071681 -903.014039 342.043157
-2627.872694 -901.413759 342.004006
-2626.673707 -899.813478 341.964856
-2625.474720 -898.213198 341.925705
-2624.275733 -896.612917 341.886555
-2623.076746 -895.012637 341.847404
-2621.877759 -893.412356 341.808253
-2620.678772 -891.812076 341.769103
-2619.479785 -890.211795 341.729952
-2618.280798 -888.611515 341.690802
-2617.081812 -887.011234 341.651651
-2615.882825 -885.410954 341.612500
-2614.683838 -883.810673 341.573350
-2613.484851 -882.210393 341.534199
-2612.285864 -880.610112 341.495049
-2611.086877 -879.009832 341.455898
-2609.887890 -877.409551 341.416747
-2608.688903 -875.809271 341.377597
-2607.489916 -874.208990 341.338446
-2606.290929 -872.608710 341.299296
-2605.091942 -871.008429 341.260145
-2603.892956 -869.408149 341.220994
-2602.693969 -867.807868 341.181844
-2601.494982 -866.207588 341.142693
-2600.295995 -864.607307 341.103543
-2599.097008 -863.007027 341.064392
-2597.898021 -861.406746 341.025242
-2596.699034 -859.806466 340.986091
-2595.500047 -858.206185 340.946940
-2594.301060 -856.605905 340.907790
-2593.102073 -855.005625 340.868639
-2591.903087 -853.405344 340.829489
-2590.704100 -851.805064 340.790338
-2589.505113 -850.204783 340.751187
-2588.306126 -848.604503 340.712037
-2587.107139 -847.004222 340.672886
-2585.908152 -845.403942 340.633736
-2584.709165 -843.803661 340.594585
-2583.510178 -842.203381 340.555434
-2582.311191 -840.603100 340.516284
-2581.112204 -839.002820 340.477133
-2579.913217 -837.402539 340.437983
-2578.714231 -835.802259 340.398832
-2577.515244 -834.201978 340.359681
-2576.316257 -832.601698 340.320531
-2575.117270 -831.001417 340.281380
-2573.918283 -829.401137 340.242230
-2572.719296 -827.800856 340.203079
-2571.520309 -826.200576 340.163928
-2570.321322 -824.600295 340.124778
-2569.122335 -823.000015 340.085627
-2567.923348 -821.399734 340.046477
-2566.724361 -819.799454 340.007326
-2565.525375 -818.199173 339.968175
-2564.326388 -816.598893 339.929025
-2563.127401 -814.998612 339.889874
-2561.928414 -813.398332 339.850724
-2560.729427 -811.798051 339.811573
-2559.530440 -810.197771 339.772423
-2558.331453 -808.597490 339.733272
-2557.132466 -806.997210 339.694121
-2555.933479 -805.396930 339.654971
-2554.734492 -803.796649 339.615820
-2553.535505 -802.196369 339.576670
-2552.336519 -800.596088 339.537519
-2551.137532 -798.995808 339.498368
-2549.938545 -797.395527 339.459218
-2548.739558 -795.795247 339.420067
-2547.540571 -794.194966 339.380917
-2546.341584 -792.594686 339.341766
-2545.142597 -790.994405 339.302615
-2543.943610 -789.394125 339.263465
-2542.744623 -787.793844 339.224314
-2541.545636 -786.193564 339.185164
-2540.346650 -784.593283 339.146013
-2539.147663 -782.993003 339.106862
-2537.948676 -781.392722 339.067712
-2536.749689 -779.792442 339.028561
-2535.550702 -778.192161 338.989411
-2534.351715 -776.591881 338.950260
-2533.152728 -774.991600 338.911109
-2531.953741 -773.391320 338.871959
-2530.754754 -771.791039 338.832808
-2529.555767 -770.190759 338.793658
-2528.356780 -768.590478 338.754507
-2527.157794 -766.990198 338.715357
-2525.958807 -765.389917 338.676206
-2524.759820 -763.789637 338.637055
-2523.560833 -762.189356 338.597905
-2522.361846 -760.589076 338.558754
-2521.162859 -758.988795 338.519604
-2519.963872 -757.388515 338.480453
-2518.764885 -755.788235 338.441302
-2517.565898 -754.187954 338.402152
-2516.366911 -752.587674 338.363001
-2515.167924 -750.987393 338.323851
-2513.968938 -749.387113 338.284700
-2512.769951 -747.786832 338.245549
-2511.570964 -746.186552 338.206399
-2510.371977 -744.586271 338.167248
-2509.172990 -742.985991 338.128098
-2507.974003 -741.385710 338.088947
-2506.775016 -739.785430 338.049796
-2505.576029 -738.185149 338.010646
-2504.377042 -736.584869 337.971495
-2503.178055 -734.984588 337.932345
-2501.979068 -733.384308 337.893194
-2500.780082 -731.784027 337.854043
-2499.581095 -730.183747 337.814893
-2498.382108 -728.583466 337.775742
-2497.183121 -726.983186 337.736592
-2495.984134 -725.382905 337.697441
-2494.785147 -723.782625 337.658291
-2493.586160 -722.182344 337.619140
-2492.387173 -720.582064 337.579989
-2491.188186 -718.981783 337.540839
-2489.989199 -717.381503 337.501688
-2488.790213 -715.781222 337.462538
-2487.591226 -714.180942 337.423387
-2486.392239 -712.580661 337.384236
-2485.193252 -710.980381 337.345086
-2483.994265 -709.380100 337.305935
-2482.795278 -707.779820 337.266785
-2481.596291 -706.179539 337.227634
-2480.397304 -704.579259 337.188483
-2479.198317 -702.978979 337.149333
-2477.999330 -701.378698 337.110182
-2476.800343 -699.778418 337.071032
-2475.601357 -698.178137 337.031881
-2474.402370 -696.577857 336.992730
-2473.203383 -694.977576 336.953580
-2472.004396 -693.377296 336.914429
-2470.805409 -691.777015 336.875279
-2469.606422 -690.176735 336.836128
-2468.407435 -688.576454 336.796977
-2467.208448 -686.976174 336.757827
-2466.009461 -685.375893 336.718676
-2464.810474 -683.775613 336.679526
-2463.611487 -682.175332 336.640375
-2462.412501 -680.575052 336.601225
-2461.213514 -678.974771 336.562074
-2460.014527 -677.374491 336.522923
-2458.815540 -675.774210 336.483773
-2457.616553 -674.173930 336.444622
-2456.417566 -672.573649 336.405472
-2455.218579 -670.973369 336.366321
-2454.019592 -669.373088 336.327170
-2452.820605 -667.772808 336.288020
-2451.621618 -666.172527 336.248869
-2450.422631 -664.572247 336.209719
-2449.223645 -662.971966 336.170568
-2448.024658 -661.371686 336.131417
-2446.825671 -659.771405 336.092267
-2445.626684 -658.171125 336.053116
